<svg version="1.1" xmlns="http://www.w3.org/2000/svg" xmlns:xlink="http://www.w3.org/1999/xlink" width="124.06022" height="86.50704" viewBox="0,0,124.06022,86.50704"><g transform="translate(-177.97203,-136.68597)"><g data-paper-data="{&quot;isPaintingLayer&quot;:true}" fill-rule="nonzero" stroke-linejoin="miter" stroke-miterlimit="10" stroke-dasharray="" stroke-dashoffset="0" style="mix-blend-mode: normal"><path d="M270.21105,215.50786v-68.30315h16.51983v68.30315z" fill="#ff6680" stroke="#e2314f" stroke-width="1" stroke-linecap="butt"/><path d="M178.57116,213.82294l-0.09879,-51.57064l11.77776,-14.48045l1.60894,-7.24022l4.42458,-3.21788l11.6648,9.2514h26.94972l10.05586,-9.2514l4.82682,2.41341l3.62011,7.24022l23.62876,0.27475c-0.04809,9.95989 -0.99975,19.83316 -1.85303,29.74897c-1.09705,12.74861 -1.37288,25.60224 -2.13346,38.39664l-53.42997,-0.55568l-5.92765,7.45197l-15.90598,0.40223l-5.72299,-8.4611z" fill="#ff6680" stroke="#e2314f" stroke-width="1" stroke-linecap="butt"/><path d="M289.15714,147.36961l7.24022,4.42458l4.02235,7.24022l1.10792,54.1958l-2.71685,2.41341l-19.60938,-0.20394c0.73774,-12.68468 1.03169,-25.42543 2.12429,-38.06148c0.86678,-10.02441 1.81647,-20.00872 1.86776,-30.07794z" fill="#ff6680" stroke="#e2314f" stroke-width="1" stroke-linecap="butt"/><path d="M200.96336,151.98371l-8.87817,3.86008l0.193,-3.28107l0.57901,-3.66707l1.35103,-5.9831l1.54403,-1.35103l5.21111,6.56214z" fill="#ffd5e6" stroke="#ffd5e6" stroke-width="1" stroke-linecap="round"/><path d="M240.99444,148.12364l5.21111,-6.56214l1.54403,1.35103l1.35103,5.9831l0.57901,3.66707l0.193,3.28107l-8.87817,-3.86008z" data-paper-data="{&quot;index&quot;:null}" fill="#ffd5e6" stroke="#ffd5e6" stroke-width="1" stroke-linecap="round"/><text transform="translate(184.06046,191.16763) scale(0.33981,0.33981)" font-size="40" xml:space="preserve" fill="#ffffff" fill-rule="nonzero" stroke="#ffffff" stroke-width="3" stroke-linecap="butt" stroke-linejoin="miter" stroke-miterlimit="10" stroke-dasharray="" stroke-dashoffset="0" font-family="Sans Serif" font-weight="normal" text-anchor="start" style="mix-blend-mode: normal"><tspan x="0" dy="0">define</tspan></text><path d="M269.25798,215.03132v-67.35009h17.79059v67.35009z" fill="#ff6680" stroke="none" stroke-width="0" stroke-linecap="butt"/><path d="M209.31532,159.76011c0,1.5989 -1.29615,2.89507 -2.89505,2.89507c-1.5989,0 -2.89507,-1.29617 -2.89507,-2.89507c0,-1.5989 1.29617,-2.89505 2.89507,-2.89505c1.5989,0 2.89505,1.29615 2.89505,2.89505z" fill="#662933" stroke="#662933" stroke-width="1" stroke-linecap="butt"/><path d="M235.32054,159.71841c0,1.5989 -1.29615,2.89507 -2.89505,2.89507c-1.5989,0 -2.89507,-1.29617 -2.89507,-2.89507c0,-1.5989 1.29617,-2.89505 2.89507,-2.89505c1.5989,0 2.89505,1.29615 2.89505,2.89505z" fill="#662933" stroke="#662933" stroke-width="1" stroke-linecap="butt"/><text transform="translate(215.03311,163.32852) scale(0.26385,0.26385)" font-size="40" xml:space="preserve" fill="#662933" fill-rule="nonzero" stroke="#662933" stroke-width="2" stroke-linecap="butt" stroke-linejoin="miter" stroke-miterlimit="10" stroke-dasharray="" stroke-dashoffset="0" font-family="Sans Serif" font-weight="normal" text-anchor="start" style="mix-blend-mode: normal"><tspan x="0" dy="0">w</tspan></text><path d="M296.25587,167.60601l-0.47825,34.59349l-32.4305,-0.22555l-4.9903,5.89765h-12.70261l-4.53664,-6.3513l-10.88794,-0.45367l0.45366,-33.76807l10.91219,0.09884l4.47876,6.42153l12.59108,-0.05096l4.84743,-5.93348z" fill="#ff4d6a" stroke="#ff405f" stroke-width="1" stroke-linecap="round"/><path d="M275.74072,171.67232h16.01932" fill="none" stroke="#ff637d" stroke-width="4.5" stroke-linecap="round"/><text transform="translate(235.04448,189.538) scale(0.33981,0.33981)" font-size="40" xml:space="preserve" fill="#ffffff" fill-rule="nonzero" stroke="#ffffff" stroke-width="3" stroke-linecap="butt" stroke-linejoin="miter" stroke-miterlimit="10" stroke-dasharray="" stroke-dashoffset="0" font-family="Sans Serif" font-weight="normal" text-anchor="start" style="mix-blend-mode: normal"><tspan x="0" dy="0">myblock</tspan></text><path d="M271.63701,153.16203h16.01932" fill="none" stroke="#ff91a3" stroke-width="4.5" stroke-linecap="round"/></g></g></svg>