<svg version="1.1" xmlns="http://www.w3.org/2000/svg" xmlns:xlink="http://www.w3.org/1999/xlink" width="131.68603" height="80.77487" viewBox="0,0,131.68603,80.77487"><g transform="translate(-174.15389,-139.54601)"><g data-paper-data="{&quot;isPaintingLayer&quot;:true}" fill-rule="nonzero" stroke-linejoin="miter" stroke-miterlimit="10" stroke-dasharray="" stroke-dashoffset="0" style="mix-blend-mode: normal"><path d="M305.33992,168.78281v43.18605l-89.73724,0.56086l-6.16943,7.29116h-15.70402l-5.60857,-7.852l-13.46058,-0.56086l0.56085,-43.7469l5.60858,-3.92601l0.56085,-8.97373l3.92599,-8.41287l4.48687,-5.60858l5.04772,1.12173l4.48686,6.16945l6.73029,6.16945l12.33886,-0.56086l11.21717,0.56086l6.16945,-6.16943l6.73029,-5.60858l3.92601,-2.24342l5.60858,6.16945l2.24342,8.41287l-1.12171,7.29116l7.852,6.73029z" fill="#ffbf00" stroke="#ce9a00" stroke-width="1" stroke-linecap="round"/><path d="M226.72048,182.4724l3.28107,-0.77201h2.31604l2.12304,1.15803l2.12304,2.12304l3.28107,-0.38602l2.50904,-1.93004l0.19302,9.07117l-1.93004,1.93004l-2.50904,0.96503l-2.89507,-0.77201l-1.54403,-1.54403l-2.89505,-0.57901l-2.70205,0.57901l-1.15803,1.15803z" fill="#4cbf56" stroke="#45993d" stroke-width="1" stroke-linecap="round"/><path d="M194.87485,157.38188l-8.87817,3.86008l0.193,-3.28107l0.57901,-3.66707l1.35103,-5.9831l1.54403,-1.35103l5.21111,6.56214z" fill="#ffd5e6" stroke="#ffd5e6" stroke-width="1" stroke-linecap="round"/><path d="M241.58177,153.52181l5.21111,-6.56214l1.54403,1.35103l1.35103,5.9831l0.57901,3.66707l0.193,3.28107l-8.87817,-3.86008z" data-paper-data="{&quot;index&quot;:null}" fill="#ffd5e6" stroke="#ffd5e6" stroke-width="1" stroke-linecap="round"/><path d="M206.56473,165.46171c0,1.5989 -1.29615,2.89507 -2.89505,2.89507c-1.5989,0 -2.89507,-1.29617 -2.89507,-2.89507c0,-1.5989 1.29617,-2.89505 2.89507,-2.89505c1.5989,0 2.89505,1.29615 2.89505,2.89505z" fill="#664c00" stroke="#664c00" stroke-width="1" stroke-linecap="butt"/><path d="M232.56995,165.42004c0,1.5989 -1.29615,2.89507 -2.89505,2.89507c-1.5989,0 -2.89507,-1.29617 -2.89507,-2.89507c0,-1.5989 1.29617,-2.89505 2.89507,-2.89505c1.5989,0 2.89505,1.29615 2.89505,2.89505z" fill="#664c00" stroke="#664c00" stroke-width="1" stroke-linecap="butt"/><text transform="translate(212.28252,169.03013) scale(0.26385,0.26385)" font-size="40" xml:space="preserve" fill="#664c00" fill-rule="nonzero" stroke="#664c00" stroke-width="2" stroke-linecap="butt" stroke-linejoin="miter" stroke-miterlimit="10" stroke-dasharray="" stroke-dashoffset="0" font-family="Sans Serif" font-weight="normal" text-anchor="start" style="mix-blend-mode: normal"><tspan x="0" dy="0">w</tspan></text><text transform="translate(180.39953,195.352) scale(0.33981,0.33981)" font-size="40" xml:space="preserve" fill="#ffffff" fill-rule="nonzero" stroke="#ffffff" stroke-width="3" stroke-linecap="butt" stroke-linejoin="miter" stroke-miterlimit="10" stroke-dasharray="" stroke-dashoffset="0" font-family="Sans Serif" font-weight="normal" text-anchor="start" style="mix-blend-mode: normal"><tspan x="0" dy="0">when          clicked</tspan></text><path d="M285.00765,172.8222h16.01932" fill="none" stroke="#ffd863" stroke-width="4.5" stroke-linecap="round"/><path d="M226.91348,199.26375v-18.72138" fill="none" stroke="#45993d" stroke-width="2.5" stroke-linecap="round"/></g></g></svg>