<svg version="1.1" xmlns="http://www.w3.org/2000/svg" xmlns:xlink="http://www.w3.org/1999/xlink" width="156.60432" height="80.77487" viewBox="0,0,156.60432,80.77487"><g transform="translate(-161.69649,-139.54601)"><g data-paper-data="{&quot;isPaintingLayer&quot;:true}" fill-rule="nonzero" stroke-linejoin="miter" stroke-miterlimit="10" stroke-dasharray="" stroke-dashoffset="0" style="mix-blend-mode: normal"><path d="M317.79733,169.17778l-0.30344,43.63078l-114.34862,-0.27884l-6.16943,7.29116h-15.70402l-5.60857,-7.852l-13.46058,-0.56086l0.56085,-43.7469l5.60858,-3.92601l0.56085,-8.97373l3.92599,-8.41287l4.48687,-5.60858l5.04772,1.12173l4.48686,6.16945l6.73029,6.16945l12.33886,-0.56086l11.21717,0.56086l6.16945,-6.16943l6.73029,-5.60858l3.92601,-2.24342l5.60858,6.16945l2.24342,8.41287l-1.12171,7.29116l7.852,6.73029z" fill="#ffab19" stroke="#ce8a15" stroke-width="1" stroke-linecap="round"/><path d="M182.48811,157.38187l-8.87817,3.86008l0.193,-3.28107l0.57901,-3.66707l1.35103,-5.9831l1.54403,-1.35103l5.21111,6.56214z" fill="#ffd5e6" stroke="#ffd5e6" stroke-width="1" stroke-linecap="round"/><path d="M229.19503,153.5218l5.21111,-6.56214l1.54403,1.35103l1.35103,5.9831l0.57901,3.66707l0.193,3.28107l-8.87817,-3.86008z" data-paper-data="{&quot;index&quot;:null}" fill="#ffd5e6" stroke="#ffd5e6" stroke-width="1" stroke-linecap="round"/><path d="M194.17799,165.46172c0,1.5989 -1.29615,2.89507 -2.89505,2.89507c-1.5989,0 -2.89507,-1.29617 -2.89507,-2.89507c0,-1.5989 1.29617,-2.89505 2.89507,-2.89505c1.5989,0 2.89505,1.29615 2.89505,2.89505z" fill="#66440a" stroke="#66440a" stroke-width="1" stroke-linecap="butt"/><path d="M220.18321,165.42002c0,1.5989 -1.29615,2.89507 -2.89505,2.89507c-1.5989,0 -2.89507,-1.29617 -2.89507,-2.89507c0,-1.5989 1.29617,-2.89505 2.89507,-2.89505c1.5989,0 2.89505,1.29615 2.89505,2.89505z" fill="#66440a" stroke="#66440a" stroke-width="1" stroke-linecap="butt"/><text transform="translate(199.89578,169.03013) scale(0.26385,0.26385)" font-size="40" xml:space="preserve" fill="#66440a" fill-rule="nonzero" stroke="#66440a" stroke-width="2" stroke-linecap="butt" stroke-linejoin="miter" stroke-miterlimit="10" stroke-dasharray="" stroke-dashoffset="0" font-family="Sans Serif" font-weight="normal" text-anchor="start" style="mix-blend-mode: normal"><tspan x="0" dy="0">w</tspan></text><path d="M297.46508,173.42911h16.01932" fill="none" stroke="#ffc663" stroke-width="4.5" stroke-linecap="round"/><text transform="translate(168.01279,195.352) scale(0.33981,0.33981)" font-size="40" xml:space="preserve" fill="#ffffff" fill-rule="nonzero" stroke="#ffffff" stroke-width="3" stroke-linecap="butt" stroke-linejoin="miter" stroke-miterlimit="10" stroke-dasharray="" stroke-dashoffset="0" font-family="Sans Serif" font-weight="normal" text-anchor="start" style="mix-blend-mode: normal"><tspan x="0" dy="0">when i start as a clone</tspan></text></g></g></svg>