<svg version="1.1" xmlns="http://www.w3.org/2000/svg" xmlns:xlink="http://www.w3.org/1999/xlink" width="177.54222" height="80.77487" viewBox="0,0,177.54222,80.77487"><g transform="translate(-151.22754,-139.54601)"><g data-paper-data="{&quot;isPaintingLayer&quot;:true}" fill-rule="nonzero" stroke-linejoin="miter" stroke-miterlimit="10" stroke-dasharray="" stroke-dashoffset="0" style="mix-blend-mode: normal"><path d="M327.96282,169.17778l0.30345,43.63078l-135.58994,-0.27884l-6.16943,7.29116h-15.70402l-5.60857,-7.852l-13.46058,-0.56086l0.56085,-43.7469l5.60858,-3.92601l0.56085,-8.97373l3.92599,-8.41287l4.48687,-5.60858l5.04772,1.12173l4.48686,6.16945l6.73029,6.16945l12.33886,-0.56086l11.21717,0.56086l6.16945,-6.16943l6.73029,-5.60858l3.92601,-2.24342l5.60858,6.16945l2.24342,8.41287l-1.12171,7.29116l7.852,6.73029z" fill="#ffbf00" stroke="#ce9a00" stroke-width="1" stroke-linecap="round"/><path d="M171.71572,157.38188l-8.87817,3.86008l0.193,-3.28107l0.57901,-3.66707l1.35103,-5.9831l1.54403,-1.35103l5.21111,6.56214z" fill="#ffd5e6" stroke="#ffd5e6" stroke-width="1" stroke-linecap="round"/><path d="M218.42264,153.52181l5.21111,-6.56214l1.54403,1.35103l1.35103,5.9831l0.57901,3.66707l0.193,3.28107l-8.87817,-3.86008z" data-paper-data="{&quot;index&quot;:null}" fill="#ffd5e6" stroke="#ffd5e6" stroke-width="1" stroke-linecap="round"/><path d="M183.4056,165.46172c0,1.5989 -1.29615,2.89507 -2.89505,2.89507c-1.5989,0 -2.89507,-1.29617 -2.89507,-2.89507c0,-1.5989 1.29617,-2.89505 2.89507,-2.89505c1.5989,0 2.89505,1.29615 2.89505,2.89505z" fill="#664c00" stroke="#664c00" stroke-width="1" stroke-linecap="butt"/><path d="M209.41082,165.42003c0,1.5989 -1.29615,2.89507 -2.89505,2.89507c-1.5989,0 -2.89507,-1.29617 -2.89507,-2.89507c0,-1.5989 1.29617,-2.89505 2.89507,-2.89505c1.5989,0 2.89505,1.29615 2.89505,2.89505z" fill="#664c00" stroke="#664c00" stroke-width="1" stroke-linecap="butt"/><text transform="translate(189.12339,169.03013) scale(0.26385,0.26385)" font-size="40" xml:space="preserve" fill="#664c00" fill-rule="nonzero" stroke="#664c00" stroke-width="2" stroke-linecap="butt" stroke-linejoin="miter" stroke-miterlimit="10" stroke-dasharray="" stroke-dashoffset="0" font-family="Sans Serif" font-weight="normal" text-anchor="start" style="mix-blend-mode: normal"><tspan x="0" dy="0">w</tspan></text><path d="M324.25678,173.12567h-16.01932" fill="none" stroke="#ffd863" stroke-width="4.5" stroke-linecap="round"/><text transform="translate(157.2404,195.352) scale(0.33981,0.33981)" font-size="40" xml:space="preserve" fill="#ffffff" fill-rule="nonzero" stroke="#ffffff" stroke-width="3" stroke-linecap="butt" stroke-linejoin="miter" stroke-miterlimit="10" stroke-dasharray="" stroke-dashoffset="0" font-family="Sans Serif" font-weight="normal" text-anchor="start" style="mix-blend-mode: normal"><tspan x="0" dy="0">when i receive</tspan></text><path d="M255.11317,200.65155v-17.75h68.13096v17.75z" fill="#ffbf00" stroke="#ce9a00" stroke-width="1" stroke-linecap="butt"/><path d="M319.15446,190.15155l-4,3.75l-3,-3.75z" fill="#ffffff" stroke="#ffffff" stroke-width="1" stroke-linecap="round"/><text transform="translate(259.1377,195.30357) scale(0.24606,0.24606)" font-size="40" xml:space="preserve" fill="#ffffff" fill-rule="nonzero" stroke="#ffffff" stroke-width="3" stroke-linecap="butt" stroke-linejoin="miter" stroke-miterlimit="10" stroke-dasharray="" stroke-dashoffset="0" font-family="Sans Serif" font-weight="normal" text-anchor="start" style="mix-blend-mode: normal"><tspan x="0" dy="0">message1</tspan></text></g></g></svg>