<svg version="1.1" xmlns="http://www.w3.org/2000/svg" xmlns:xlink="http://www.w3.org/1999/xlink" width="161.15257" height="80.77487" viewBox="0,0,161.15257,80.77487"><g transform="translate(-159.42062,-139.54601)"><g data-paper-data="{&quot;isPaintingLayer&quot;:true}" fill-rule="nonzero" stroke-linejoin="miter" stroke-miterlimit="10" stroke-dasharray="" stroke-dashoffset="0" style="mix-blend-mode: normal"><path d="M320.07319,168.57088v44.23767l-119.20378,-0.27884l-6.16943,7.29116h-15.70402l-5.60857,-7.852l-13.46058,-0.56086l0.56085,-43.7469l5.60858,-3.92601l0.56085,-8.97373l3.92599,-8.41287l4.48687,-5.60858l5.04772,1.12173l4.48686,6.16945l6.73029,6.16945l12.33886,-0.56086l11.21717,0.56086l6.16945,-6.16943l6.73029,-5.60858l3.92601,-2.24342l5.60858,6.16945l2.24342,8.41287l-1.12171,7.29116l7.852,6.73029z" fill="#ffbf00" stroke="#ce9a00" stroke-width="1" stroke-linecap="round"/><path d="M179.9088,157.38188l-8.87817,3.86008l0.193,-3.28107l0.57901,-3.66707l1.35103,-5.9831l1.54403,-1.35103l5.21111,6.56214z" fill="#ffd5e6" stroke="#ffd5e6" stroke-width="1" stroke-linecap="round"/><path d="M226.61572,153.52181l5.21111,-6.56214l1.54403,1.35103l1.35103,5.9831l0.57901,3.66707l0.193,3.28107l-8.87817,-3.86008z" data-paper-data="{&quot;index&quot;:null}" fill="#ffd5e6" stroke="#ffd5e6" stroke-width="1" stroke-linecap="round"/><path d="M191.59868,165.46171c0,1.5989 -1.29615,2.89507 -2.89505,2.89507c-1.5989,0 -2.89507,-1.29617 -2.89507,-2.89507c0,-1.5989 1.29617,-2.89505 2.89507,-2.89505c1.5989,0 2.89505,1.29615 2.89505,2.89505z" fill="#664c00" stroke="#664c00" stroke-width="1" stroke-linecap="butt"/><path d="M217.6039,165.42003c0,1.5989 -1.29615,2.89507 -2.89505,2.89507c-1.5989,0 -2.89507,-1.29617 -2.89507,-2.89507c0,-1.5989 1.29617,-2.89505 2.89507,-2.89505c1.5989,0 2.89505,1.29615 2.89505,2.89505z" fill="#664c00" stroke="#664c00" stroke-width="1" stroke-linecap="butt"/><text transform="translate(197.31647,169.03013) scale(0.26385,0.26385)" font-size="40" xml:space="preserve" fill="#664c00" fill-rule="nonzero" stroke="#664c00" stroke-width="2" stroke-linecap="butt" stroke-linejoin="miter" stroke-miterlimit="10" stroke-dasharray="" stroke-dashoffset="0" font-family="Sans Serif" font-weight="normal" text-anchor="start" style="mix-blend-mode: normal"><tspan x="0" dy="0">w</tspan></text><text transform="translate(165.43348,195.352) scale(0.33981,0.33981)" font-size="40" xml:space="preserve" fill="#ffffff" fill-rule="nonzero" stroke="#ffffff" stroke-width="3" stroke-linecap="butt" stroke-linejoin="miter" stroke-miterlimit="10" stroke-dasharray="" stroke-dashoffset="0" font-family="Sans Serif" font-weight="normal" text-anchor="start" style="mix-blend-mode: normal"><tspan x="0" dy="0">when                     &gt;</tspan></text><path d="M207.25576,200.65157v-17.75h61.71037v17.75z" fill="#ffbf00" stroke="#ce9a00" stroke-width="1" stroke-linecap="butt"/><path d="M264.13046,190.15157l-4,3.75l-3,-3.75z" fill="#ffffff" stroke="#ffffff" stroke-width="1" stroke-linecap="round"/><text transform="translate(211.28029,195.30358) scale(0.24606,0.24606)" font-size="40" xml:space="preserve" fill="#ffffff" fill-rule="nonzero" stroke="#ffffff" stroke-width="3" stroke-linecap="butt" stroke-linejoin="miter" stroke-miterlimit="10" stroke-dasharray="" stroke-dashoffset="0" font-family="Sans Serif" font-weight="normal" text-anchor="start" style="mix-blend-mode: normal"><tspan x="0" dy="0">loudness</tspan></text><path d="M299.74093,173.12566h16.01932" fill="none" stroke="#ffd863" stroke-width="4.5" stroke-linecap="round"/><path d="M313.51045,190.97027c0,5.4308 -5.74568,9.83334 -12.83334,9.83334c-7.08766,0 -12.83334,-4.40254 -12.83334,-9.83334c0,-5.4308 5.74568,-9.83334 12.83334,-9.83334c7.08766,0 12.83334,4.40254 12.83334,9.83334z" fill="#ffffff" stroke="#ce9a00" stroke-width="1" stroke-linecap="butt"/><text transform="translate(294.81779,193.89262) scale(0.24357,0.24357)" font-size="40" xml:space="preserve" fill="#333333" fill-rule="nonzero" stroke="#333333" stroke-width="3" stroke-linecap="butt" stroke-linejoin="miter" stroke-miterlimit="10" stroke-dasharray="" stroke-dashoffset="0" font-family="Sans Serif" font-weight="normal" text-anchor="start" style="mix-blend-mode: normal"><tspan x="0" dy="0">10</tspan></text></g></g></svg>